<svg xmlns="http://www.w3.org/2000/svg" viewBox="0 0 64 64" fill="none">
  <defs>
    <linearGradient id="fEdge" x1="0" y1="0" x2="1" y2="1">
      <stop offset="0%" stop-color="#d4d4d8"/>
      <stop offset="40%" stop-color="#fafafa"/>
      <stop offset="60%" stop-color="#a1a1aa"/>
      <stop offset="100%" stop-color="#71717a"/>
    </linearGradient>
    <linearGradient id="fFill" x1="0.5" y1="0" x2="0.5" y2="1">
      <stop offset="0%" stop-color="#27272a"/>
      <stop offset="100%" stop-color="#18181b"/>
    </linearGradient>
  </defs>

  <g transform="translate(32, 4)">
    <!-- Shield outer -->
    <path d="M0 0 L26 9 C27 9.4 28 10.5 28 11.5 L28 32 C28 44 22 52 0 60 C-22 52 -28 44 -28 32 L-28 11.5 C-28 10.5 -27 9.4 -26 9 Z"
          fill="url(#fEdge)"/>
    <!-- Shield inner -->
    <path d="M0 4 L23 12 C23.5 12.2 24 13 24 13.5 L24 31 C24 41 19 48 0 55 C-19 48 -24 41 -24 31 L-24 13.5 C-24 13 -23.5 12.2 -23 12 Z"
          fill="url(#fFill)"/>
    <!-- PS bold -->
    <text x="0" y="40" text-anchor="middle"
          font-family="'Inter', 'Segoe UI', system-ui, sans-serif"
          font-size="24" font-weight="900" letter-spacing="1"
          fill="#fafafa">PS</text>
  </g>
</svg>